<?xml version="1.0" standalone="no"?>
<!DOCTYPE svg PUBLIC "-//W3C//DTD SVG 20010904//EN"
 "http://www.w3.org/TR/2001/REC-SVG-20010904/DTD/svg10.dtd">
<svg version="1.0" xmlns="http://www.w3.org/2000/svg"
 width="300.000000pt" height="300.000000pt" viewBox="0 0 300.000000 300.000000"
 preserveAspectRatio="xMidYMid meet">
<metadata>
Created by potrace 1.14, written by Peter Selinger 2001-2017
</metadata>
<g transform="translate(0.000000,300.000000) scale(0.100000,-0.100000)"
fill="#000000" stroke="none">
<path d="M1429 2068 c-37 -44 -170 -196 -204 -234 -26 -29 -128 -145 -174
-199 l-51 -60 0 -347 0 -348 251 0 251 0 249 172 249 172 0 57 c0 31 -3 70 -6
86 -7 36 -50 64 -79 52 -28 -11 -37 -11 -30 1 3 5 -10 20 -29 32 -35 23 -36
24 -37 98 -1 41 -1 78 0 82 1 7 -38 32 -49 31 -3 0 -11 2 -17 4 -12 5 21 56
64 101 15 16 16 21 13 127 -1 44 -6 86 -12 92 -15 19 -45 16 -53 -4 -5 -15 -9
-12 -20 15 -8 17 -21 33 -30 33 -20 2 -24 3 -67 22 -21 10 -44 17 -52 17 -8 0
-18 5 -22 11 -3 6 -17 9 -30 6 -13 -2 -21 0 -18 4 4 7 -35 29 -50 29 -2 0 -23
-23 -47 -52z"/>
</g>
</svg>
